<svg xmlns="http://www.w3.org/2000/svg" viewBox="0 0 48 48">
  <circle cx="24" cy="24" r="19" fill="#5db9e6" />
  <path d="M20.09 14.89a1.72 1.72 0 1 1 3.44 0 1.72 1.72 0 0 1-3.44 0Z" fill="#fff" />
  <path d="M15.45 19.18c1.58.89 2.84.46 5.13-.86 1.59 1.03 2.63 2.03 4.66-.04 2.5 2 4.12.97 5.71-.06 2.03 1.35 4.24 1.53 5.22.26" fill="none" stroke="#fff" stroke-width=".8" stroke-linecap="round" stroke-linejoin="round" />
  <path d="m32.71 17.95-.18-.81c-1.01-3.66-4.17-3.96-7.64-1.03l3.32 3.27-5.63-1.62 1.95-2.02c3.42-3.44 6.82-3.19 7.95 1.14l.06.26c.07.26.13.53.18.81Z" fill="#fff" />
  <path d="M22.6 34.67a1.5 1.5 0 1 1-2.71-1.26 1.5 1.5 0 0 1 2.71 1.26Z" fill="#fff" />
  <path d="M25.45 38.8c-1.56.12-2.4-.68-3.71-2.55-1.63.23-2.8.63-3.64-1.73-2.7.66-3.59-.75-4.46-2.14-2.09.32-3.89-.35-4.19-1.7" fill="none" stroke="#fff" stroke-width=".7" stroke-linecap="round" stroke-linejoin="round" />
  <path d="m12.35 31.53.44-.57c2.13-2.5 4.72-1.58 6.37 1.98l-3.8 1.35 5.01.79-.79-2.3c-1.43-3.95-4.18-5-6.66-2.01l-.14.18c-.15.17-.3.37-.44.57Z" fill="#fff" />
  <path d="M21.27 8.26a1.05 1.05 0 1 1 0 2.1 1.05 1.05 0 0 1 0-2.1Z" fill="#fff" />
  <path d="M18.43 10.87c.96.54 1.73.28 3.13-.53.97.63 1.6 1.23 2.84-.02 1.53 1.22 2.51.59 3.48-.04 1.24.83 2.59.93 3.18.16" fill="none" stroke="#fff" stroke-width=".6" stroke-linecap="round" stroke-linejoin="round" />
  <path d="m28.96 10.13-.11-.5c-.62-2.23-2.54-2.41-4.66-.63l2.02 2-3.43-.99 1.19-1.23c2.09-2.1 4.16-1.95 4.85.7l.03.16c.04.16.08.32.11.5Z" fill="#fff" />
  <path d="M25.54 24.5a1.13 1.13 0 1 1 2.26 0 1.13 1.13 0 0 1-2.26 0Z" fill="#fff" />
  <path d="m24.57 21.46-.43.13c-1.9.71-1.92 2.41-.2 4.13l-.18.21c-2-1.67-2.02-3.49.24-4.3l.14-.04c.13-.05.27-.09.43-.13Z" fill="#fff" />
  <path d="m24.14 30.19.74-3.77 1.43 1.15c-1.35 1.59-2.16 2.61-2.16 2.61Z" fill="#fff" />
  <path d="M7.21 25.37c1.05.59 1.89.3 3.42-.57 1.06.69 1.75 1.35 3.1-.02 1.67 1.33 2.74.65 3.8-.04 1.35.9 2.82 1.02 3.47.18" fill="none" stroke="#fff" stroke-width=".8" stroke-linecap="round" stroke-linejoin="round" />
  <path d="M13.08 19.13a1.13 1.13 0 1 1 2.26 0 1.13 1.13 0 0 1-2.26 0Z" fill="#fff" />
  <path d="m12.78 16.34-.43.13c-1.9.71-1.92 2.41-.2 4.13l-.18.21c-2-1.67-2.02-3.49.24-4.3l.14-.04c.13-.05.27-.09.43-.13Z" fill="#fff" />
  <path d="M10.88 15.74a1.34 1.34 0 1 1 2.68 0 1.34 1.34 0 0 1-2.68 0Z" fill="#fff" />
  <path d="m13.91 27.34.52-.16c2.33-.87 2.35-2.95.24-5.05l-1.95 2.35.74-3.77 1.43 1.15c2.44 2.04 2.47 4.27-.29 5.26l-.17.05c-.16.06-.34.12-.52.16Z" fill="#fff" />
  <path d="M32.53 28.77a1.04 1.04 0 1 1-1.89-.88 1.04 1.04 0 0 1 1.89.88Z" fill="#fff" />
  <path d="M34.96 34.69a1.79 1.79 0 1 1-3.23-1.51 1.79 1.79 0 0 1 3.23 1.51Z" fill="#fff" />
  <path d="M29.26 37.33a1.79 1.79 0 1 1-3.23-1.51 1.79 1.79 0 0 1 3.23 1.51Z" fill="#fff" />
  <path d="m33.17 30.81.22-.03c1.02-.08 1.38.69.96 1.83l.13.06c.55-1.18.18-2.01-1.02-1.9h-.07c-.07.02-.14.02-.22.04Z" fill="#fff" />
  <path d="m31.5 35.56-1.89 1.82-.35-1.21c1.38-.36 2.24-.61 2.24-.61Z" fill="#fff" />
  <path d="m33.86 31.51-.31.29c-1.49 1.23-2.9.43-3.5-1.8l-.26.05c.42 2.44 1.92 3.33 3.66 1.85l.1-.09c.1-.09.21-.18.31-.29Z" fill="#fff" />
  <path d="m28.25 35.03 1.3-4.54 1.63 1.57c-1.82 1.8-2.93 2.97-2.93 2.97Z" fill="#fff" />
  <path d="M39.28 20.48a1.12 1.12 0 1 1-2.11-.77 1.12 1.12 0 0 1 2.11.77Z" fill="#fff" />
  <path d="m32.27 25.78-.25-.48c-1.02-2.24.42-3.72 3.37-3.71l-.28 3.02 2.13-3.16-1.81-.19c-3.14-.28-4.73 1.26-3.48 3.89l.08.15c.07.16.16.32.25.48Z" fill="#fff" />
  <path d="m41.92 21.35-.13.42c-.71 1.89-2.39 1.9-4.09.19l-.21.18c1.65 1.98 3.46 2 4.26-.24l.04-.14c.05-.13.09-.27.13-.42Z" fill="#fff" />
  <path d="m37.14 31.24.46-.29c2.01-1.43 1.49-3.43-1.07-4.9l-1.26 2.75-.26-3.8 1.67.74c2.86 1.33 3.47 3.46 1.07 5.11l-.15.09c-.14.1-.29.2-.46.29Z" fill="#fff" />
</svg>